<?xml version="1.0" encoding="utf-8"?>
<!-- Generator: Adobe Illustrator 16.0.0, SVG Export Plug-In . SVG Version: 6.00 Build 0)  -->
<!DOCTYPE svg PUBLIC "-//W3C//DTD SVG 1.1//EN" "http://www.w3.org/Graphics/SVG/1.1/DTD/svg11.dtd">
<svg version="1.1"
	 id="svg13157" inkscape:version="0.91 r" sodipodi:docname="ic_taxies.svg" xmlns:sodipodi="http://sodipodi.sourceforge.net/DTD/sodipodi-0.dtd" xmlns:cc="http://creativecommons.org/ns#" xmlns:inkscape="http://www.inkscape.org/namespaces/inkscape" xmlns:dc="http://purl.org/dc/elements/1.1/" xmlns:rdf="http://www.w3.org/1999/02/22-rdf-syntax-ns#" xmlns:svg="http://www.w3.org/2000/svg"
	 xmlns="http://www.w3.org/2000/svg" xmlns:xlink="http://www.w3.org/1999/xlink" x="0px" y="0px" width="150px" height="150px"
	 viewBox="181.002 181.918 150 150" enable-background="new 181.002 181.918 150 150" xml:space="preserve">
<sodipodi:namedview  id="namedview3385" inkscape:snap-bbox-midpoints="true" inkscape:window-y="256" inkscape:window-width="1366" inkscape:window-height="717" inkscape:window-x="0" inkscape:pageopacity="0" inkscape:pageshadow="2" inkscape:window-maximized="1" showguides="false" inkscape:cx="296.78779" showgrid="false" gridtolerance="10" borderopacity="1" pagecolor="#ffffff" guidetolerance="10" inkscape:cy="370.80117" inkscape:zoom="0.61200253" objecttolerance="10" bordercolor="#666666" inkscape:bbox-paths="true" inkscape:current-layer="svg13157" inkscape:guide-bbox="true" inkscape:bbox-nodes="true" inkscape:snap-bbox="true" inkscape:snap-bbox-edge-midpoints="true">
	<sodipodi:guide  id="guide4189" orientation="0.70710678,0.70710678" position="12.395396,18.719133"></sodipodi:guide>
	<sodipodi:guide  id="guide4191" orientation="0.70710678,0.70710678" position="4.6815106,2.8178674"></sodipodi:guide>
</sodipodi:namedview>
<g>
	<path id="rect4187" fill="#FFCC29" d="M256.002,181.918L256.002,181.918c41.421,0,75,33.579,75,75l0,0c0,41.421-33.579,75-75,75
		l0,0c-41.421,0-75-33.579-75-75l0,0C181.002,215.497,214.581,181.918,256.002,181.918z"/>
	<path id="_313622448" inkscape:connector-curvature="0" fill="#1A1A1A" d="M234.855,304.726h-15.455l26.919-95.615h19.432
		l26.852,95.615h-15.456l-21.153-71.089l-21.144,71.089H234.855z M270.951,304.726h-29.897l14.949-16.411L270.951,304.726
		L270.951,304.726z"/>
</g>
</svg>
