<?xml version="1.0" encoding="utf-8"?>
<!-- Generator: Adobe Illustrator 19.1.0, SVG Export Plug-In . SVG Version: 6.00 Build 0)  -->
<svg version="1.1" id="Layer_1" xmlns="http://www.w3.org/2000/svg" xmlns:xlink="http://www.w3.org/1999/xlink" x="0px" y="0px"
	 viewBox="0 0 287 79" style="enable-background:new 0 0 287 79;" xml:space="preserve">
<style type="text/css">
	.st0{fill:#1A1A1A;}
	.st1{fill:none;stroke:#1A1A1A;stroke-width:0;stroke-linecap:round;stroke-linejoin:round;}
</style>
<g>
	<polygon class="st0" points="48,0 0,0 0,11 16,11 16,79 32,79 32,11 48,11 	"/>
	<polygon class="st0" points="152.6,0 138,0 126,29 125.7,29 114,0 97.7,0 114.1,38.5 100.5,70 80.9,0 64.8,0 42.4,79 55.2,79 
		72.8,20 90.3,79 96.5,79 103.2,79 111.3,79 124.1,48 124.4,48 137.1,79 153.7,79 136.1,38.4 	"/>
	<rect x="164" class="st0" width="15" height="79"/>
	<polygon class="st0" points="191,79 234,79 234,68 206,68 206,44 228,44 228,33 206,33 206,11 234,11 234,0 191,0 	"/>
	<path class="st0" d="M269.8,35.5c-10.1-7-13.1-11.2-13.1-16.8c0-5.5,2.8-7.6,7.7-7.6c4.9,0,7.7,2.1,7.7,7.6V22h15v-2.6
		c0-12.4-7.9-19.5-22.8-19.5c-14.9,0-22.7,7.1-22.7,19.5c0,8.9,4,15.3,16.9,24.2c10.1,7,13.1,11.2,13.1,16.8c0,5.5-3.3,7.5-8.2,7.5
		c-4.9,0-8.2-2-8.2-7.5V55h-14v4.7c0,12.4,7.8,19.5,22.9,19.5c15.1,0,22.9-7.1,22.9-19.5C286.7,50.9,282.7,44.4,269.8,35.5z"/>
	<line class="st1" x1="55" y1="79.2" x2="55" y2="79.2"/>
	<polygon class="st0" points="60.4,79 85.2,79 72.8,65.4 	"/>
</g>
</svg>
